<?xml version="1.0" encoding="UTF-8"?>
<svg id="App" xmlns="http://www.w3.org/2000/svg" viewBox="0 0 716 383">
  <defs>
    <style>
      .cls-1 {
        fill: #4f4f4f;
        stroke-width: 0px;
      }
    </style>
  </defs>
  <g>
    <path class="cls-1" d="m29.3,166.73V52.73h25.38v50.62h25.38v-50.62h25.23v114h-25.23v-50.62h-25.38v50.62h-25.38Z"/>
    <path class="cls-1" d="m156.06,78.11h25.38c6.89,0,12.82,2.48,17.78,7.45,4.96,4.97,7.45,10.89,7.45,17.78v38c0,6.89-2.48,12.84-7.45,17.86-4.97,5.02-10.89,7.52-17.78,7.52h-25.38c-6.89,0-12.84-2.48-17.86-7.45-5.02-4.96-7.52-10.94-7.52-17.94v-38c0-6.89,2.51-12.82,7.52-17.78,5.02-4.96,10.97-7.45,17.86-7.45Zm0,25.23v38c0,3.45,1.24,6.44,3.72,8.97,2.48,2.53,5.45,3.8,8.89,3.8s6.56-1.27,9.04-3.8c2.48-2.53,3.72-5.52,3.72-8.97v-38c0-3.44-1.24-6.41-3.72-8.89-2.48-2.48-5.5-3.72-9.04-3.72s-6.41,1.24-8.89,3.72c-2.48,2.48-3.72,5.45-3.72,8.89Z"/>
    <path class="cls-1" d="m232.06,78.11h25.38v76h12.62c3.55,0,6.56-1.27,9.04-3.8,2.48-2.53,3.72-5.52,3.72-8.97v-63.23h25.23v76h12.77c3.44,0,6.41-1.27,8.89-3.8,2.48-2.53,3.72-5.52,3.72-8.97v-63.23h25.38v45.3c0,11.86-4.23,22.04-12.69,30.55-8.46,8.51-18.67,12.77-30.63,12.77h-32.68v-3.95c-4.86,2.64-10.84,3.95-17.94,3.95h-32.83v-88.62Z"/>
  </g>
  <g>
    <path class="cls-1" d="m29.11,228.51v-12.62h25.38v12.62h-25.38Zm0,101.38v-88.62h25.38v88.62h-25.38Z"/>
    <path class="cls-1" d="m92.5,215.9h25.23v25.38h12.77v12.62h-12.77v50.62c0,4.16,1.37,7.32,4.1,9.5,2.74,2.18,5.22,3.27,7.45,3.27h1.22v12.62h-12.77c-6.89,0-12.82-2.48-17.78-7.45-4.97-4.96-7.45-10.94-7.45-17.94v-50.62h-12.77v-12.62h12.77v-25.38Z"/>
  </g>
  <g>
    <path class="cls-1" d="m200.11,239.59h25.38v76h12.62c3.55,0,6.56-1.27,9.04-3.8,2.48-2.53,3.72-5.52,3.72-8.97v-63.23h25.23v76h12.77c3.44,0,6.41-1.27,8.89-3.8,2.48-2.53,3.72-5.52,3.72-8.97v-63.23h25.38v45.3c0,11.86-4.23,22.04-12.69,30.55-8.46,8.51-18.67,12.77-30.63,12.77h-32.68v-3.95c-4.86,2.64-10.84,3.95-17.94,3.95h-32.83v-88.62Z"/>
    <path class="cls-1" d="m377.5,239.59h25.38c6.89,0,12.82,2.48,17.78,7.45,4.96,4.97,7.45,10.89,7.45,17.78v38c0,6.89-2.48,12.84-7.45,17.86-4.97,5.02-10.89,7.52-17.78,7.52h-25.38c-6.89,0-12.84-2.48-17.86-7.45-5.02-4.96-7.52-10.94-7.52-17.94v-38c0-6.89,2.51-12.82,7.52-17.78,5.02-4.96,10.97-7.45,17.86-7.45Zm0,25.23v38c0,3.45,1.24,6.44,3.72,8.97,2.48,2.53,5.45,3.8,8.89,3.8s6.56-1.27,9.04-3.8c2.48-2.53,3.72-5.52,3.72-8.97v-38c0-3.44-1.24-6.41-3.72-8.89-2.48-2.48-5.5-3.72-9.04-3.72s-6.41,1.24-8.89,3.72c-2.48,2.48-3.72,5.45-3.72,8.89Z"/>
    <path class="cls-1" d="m478.88,328.21h-25.38v-88.62h25.38v25.23c1.01-8.41,3.62-14.72,7.83-18.92,4.2-4.2,10.06-6.31,17.56-6.31h12.62v25.23h-25.38c-3.45,0-6.41,1.24-8.89,3.72-2.48,2.48-3.72,5.5-3.72,9.04v50.62Z"/>
    <path class="cls-1" d="m529.5,328.21v-114h25.38v57l38-31.62h25.38l-53.05,44.23,53.05,44.38h-25.38l-38-31.62v31.62h-25.38Z"/>
    <path class="cls-1" d="m694.26,264.82h-12.62c-1.12-8.41-5.12-12.62-12.01-12.62-4.46,0-7.8.89-10.03,2.66-2.23,1.77-3.34,4.38-3.34,7.83,0,3.65,6.13,8.77,18.39,15.35,10.03,5.37,15.81,9.83,17.33,13.38,1.52,3.55,2.28,7.35,2.28,11.4,0,6.99-2.48,12.97-7.45,17.94-4.97,4.97-10.94,7.45-17.94,7.45h-12.62c-16.92,0-25.38-8.46-25.38-25.38h12.77c1.01,8.51,4.96,12.77,11.86,12.77,4.56,0,7.95-.89,10.18-2.66,2.23-1.77,3.34-4.43,3.34-7.98s-6.13-8.61-18.39-15.2c-10.03-5.37-15.83-9.83-17.4-13.38-1.57-3.55-2.36-7.35-2.36-11.4,0-6.99,2.51-12.97,7.52-17.94,5.02-4.96,10.97-7.45,17.86-7.45h12.62c15.91,0,24.37,8.41,25.38,25.23Z"/>
  </g>
</svg>