<?xml version="1.0" encoding="UTF-8"?>
<svg id="App" xmlns="http://www.w3.org/2000/svg" xmlns:xlink="http://www.w3.org/1999/xlink" viewBox="0 0 435 180">
  <defs>
    <style>
      .cls-1 {
        filter: url(#drop-shadow-3);
        opacity: .66;
      }

      .cls-2 {
        fill: #4f4f4f;
      }

      .cls-2, .cls-3, .cls-4 {
        stroke-width: 0px;
      }

      .cls-3 {
        fill: #fff;
      }

      .cls-4 {
        fill: #ffaf7b;
      }
    </style>
    <filter id="drop-shadow-3" filterUnits="userSpaceOnUse">
      <feOffset dx="7" dy="7"/>
      <feGaussianBlur result="blur" stdDeviation="5"/>
      <feFlood flood-color="#000" flood-opacity=".75"/>
      <feComposite in2="blur" operator="in"/>
      <feComposite in="SourceGraphic"/>
    </filter>
  </defs>
  <g class="cls-1">
    <rect class="cls-3" x="28.79" y="32.7" width="382" height="117" rx="26.54" ry="26.54"/>
  </g>
  <g>
    <path class="cls-2" d="m142.02,95.05c-.26,2.2-1.07,3.9-2.43,5.09-1.37,1.19-3.18,1.79-5.45,1.79-2.46,0-4.42-.88-5.9-2.64s-2.22-4.12-2.22-7.07v-2c0-1.93.34-3.63,1.04-5.1.69-1.47,1.67-2.59,2.93-3.38s2.73-1.18,4.4-1.18c2.21,0,3.98.62,5.31,1.85,1.33,1.23,2.11,2.94,2.33,5.12h-2.76c-.24-1.66-.75-2.86-1.55-3.61-.79-.75-1.91-1.12-3.33-1.12-1.75,0-3.12.65-4.12,1.94-1,1.3-1.49,3.14-1.49,5.53v2.01c0,2.26.47,4.05,1.41,5.39.94,1.33,2.26,2,3.96,2,1.52,0,2.69-.34,3.5-1.04.81-.69,1.35-1.89,1.62-3.61h2.76Z"/>
    <path class="cls-2" d="m144.65,93.78c0-1.51.3-2.87.89-4.08s1.42-2.14,2.48-2.8c1.06-.66,2.27-.99,3.63-.99,2.1,0,3.8.73,5.1,2.18,1.3,1.46,1.95,3.39,1.95,5.81v.19c0,1.5-.29,2.85-.86,4.05-.58,1.19-1.4,2.12-2.47,2.79-1.07.67-2.3,1-3.69,1-2.09,0-3.79-.73-5.09-2.18-1.3-1.46-1.95-3.38-1.95-5.78v-.19Zm2.66.31c0,1.71.4,3.09,1.19,4.13.79,1.04,1.86,1.56,3.19,1.56s2.41-.53,3.2-1.58,1.18-2.52,1.18-4.42c0-1.69-.4-3.07-1.21-4.12s-1.87-1.58-3.21-1.58-2.36.52-3.16,1.56c-.8,1.04-1.2,2.52-1.2,4.46Z"/>
    <path class="cls-2" d="m162.04,82.1c0-.43.13-.79.39-1.08s.65-.44,1.16-.44.9.15,1.17.44.4.66.4,1.08-.13.79-.4,1.07c-.27.29-.66.43-1.17.43s-.9-.14-1.16-.43c-.26-.29-.39-.64-.39-1.07Zm2.86,19.55h-2.64v-15.45h2.64v15.45Z"/>
    <path class="cls-2" d="m171.62,86.2l.08,1.94c1.18-1.48,2.72-2.23,4.63-2.23,3.26,0,4.91,1.84,4.94,5.53v10.21h-2.64v-10.22c0-1.11-.26-1.94-.76-2.47s-1.28-.8-2.33-.8c-.86,0-1.61.23-2.26.69-.65.46-1.15,1.06-1.51,1.8v11.01h-2.64v-15.45h2.5Z"/>
    <path class="cls-2" d="m191.45,99.77c.94,0,1.77-.29,2.47-.86.7-.57,1.09-1.29,1.17-2.14h2.5c-.05.89-.35,1.73-.91,2.53-.56.8-1.31,1.44-2.25,1.91-.94.48-1.93.71-2.98.71-2.1,0-3.78-.7-5.02-2.11s-1.86-3.32-1.86-5.76v-.44c0-1.5.28-2.84.83-4.01s1.34-2.08,2.38-2.73c1.03-.65,2.25-.97,3.66-.97,1.73,0,3.17.52,4.32,1.56,1.15,1.04,1.76,2.38,1.83,4.04h-2.5c-.08-1-.45-1.82-1.13-2.46s-1.52-.96-2.52-.96c-1.34,0-2.38.48-3.12,1.45s-1.11,2.36-1.11,4.19v.5c0,1.78.37,3.15,1.1,4.11.73.96,1.78,1.44,3.14,1.44Z"/>
    <path class="cls-2" d="m200.58,82.1c0-.43.13-.79.39-1.08s.65-.44,1.16-.44.9.15,1.17.44.4.66.4,1.08-.13.79-.4,1.07c-.27.29-.66.43-1.17.43s-.9-.14-1.16-.43c-.26-.29-.39-.64-.39-1.07Zm2.86,19.55h-2.64v-15.45h2.64v15.45Z"/>
    <path class="cls-2" d="m207.02,93.79c0-2.37.56-4.28,1.68-5.72,1.12-1.44,2.59-2.16,4.41-2.16s3.24.62,4.3,1.86v-8.05h2.64v21.93h-2.43l-.13-1.66c-1.06,1.29-2.53,1.94-4.41,1.94s-3.25-.73-4.38-2.2-1.69-3.38-1.69-5.74v-.2Zm2.64.3c0,1.75.36,3.12,1.09,4.11.72.99,1.72,1.48,3,1.48,1.67,0,2.9-.75,3.67-2.26v-7.1c-.79-1.46-2-2.18-3.64-2.18-1.29,0-2.3.5-3.03,1.5-.72,1-1.09,2.48-1.09,4.44Z"/>
    <path class="cls-2" d="m230.56,101.93c-2.09,0-3.8-.69-5.11-2.06-1.31-1.38-1.97-3.21-1.97-5.52v-.49c0-1.53.29-2.9.88-4.1.58-1.2,1.4-2.15,2.46-2.83s2.19-1.02,3.42-1.02c2.01,0,3.57.66,4.68,1.99,1.11,1.32,1.67,3.22,1.67,5.68v1.1h-10.47c.04,1.52.48,2.75,1.33,3.69s1.93,1.41,3.25,1.41c.93,0,1.72-.19,2.37-.57s1.21-.89,1.7-1.51l1.61,1.26c-1.29,1.99-3.24,2.98-5.83,2.98Zm-.33-13.85c-1.07,0-1.96.39-2.68,1.16-.72.78-1.17,1.86-1.34,3.26h7.74v-.2c-.08-1.34-.44-2.38-1.08-3.12s-1.52-1.11-2.63-1.11Z"/>
    <path class="cls-2" d="m260.56,98l2.97-11.81h2.64l-4.5,15.45h-2.14l-3.75-11.71-3.66,11.71h-2.14l-4.48-15.45h2.63l3.04,11.56,3.6-11.56h2.13l3.67,11.81Z"/>
    <path class="cls-2" d="m268.87,82.1c0-.43.13-.79.39-1.08s.65-.44,1.16-.44.9.15,1.17.44.4.66.4,1.08-.13.79-.4,1.07c-.27.29-.66.43-1.17.43s-.9-.14-1.16-.43c-.26-.29-.39-.64-.39-1.07Zm2.86,19.55h-2.64v-15.45h2.64v15.45Z"/>
    <path class="cls-2" d="m279.53,82.45v3.74h2.88v2.04h-2.88v9.59c0,.62.13,1.08.39,1.39.26.31.69.46,1.31.46.3,0,.72-.06,1.26-.17v2.13c-.69.19-1.37.28-2.03.28-1.18,0-2.07-.36-2.67-1.07s-.9-1.73-.9-3.04v-9.58h-2.81v-2.04h2.81v-3.74h2.64Z"/>
    <path class="cls-2" d="m288.14,88.07c1.17-1.44,2.69-2.16,4.57-2.16,3.26,0,4.91,1.84,4.94,5.53v10.21h-2.64v-10.22c0-1.11-.26-1.94-.76-2.47s-1.28-.8-2.33-.8c-.86,0-1.61.23-2.26.69-.65.46-1.15,1.06-1.51,1.8v11.01h-2.64v-21.93h2.64v8.35Z"/>
    <path class="cls-2" d="m318.38,100.12c-1.03,1.21-2.54,1.81-4.53,1.81-1.65,0-2.9-.48-3.76-1.43-.86-.96-1.3-2.37-1.31-4.25v-10.05h2.64v9.98c0,2.34.95,3.51,2.86,3.51,2.02,0,3.36-.75,4.03-2.26v-11.24h2.64v15.45h-2.51l-.06-1.53Z"/>
    <path class="cls-2" d="m333.96,97.55c0-.71-.27-1.27-.81-1.66-.54-.4-1.48-.74-2.81-1.02-1.34-.29-2.4-.63-3.18-1.03-.79-.4-1.37-.88-1.74-1.43s-.56-1.21-.56-1.97c0-1.27.54-2.34,1.61-3.21,1.07-.88,2.44-1.31,4.11-1.31,1.75,0,3.17.45,4.26,1.36s1.63,2.06,1.63,3.47h-2.66c0-.72-.31-1.35-.92-1.87-.61-.52-1.39-.79-2.32-.79s-1.71.21-2.26.63c-.54.42-.81.97-.81,1.64,0,.64.25,1.12.76,1.44.5.32,1.42.63,2.73.93,1.32.3,2.39.65,3.21,1.06s1.43.9,1.82,1.48c.4.58.59,1.28.59,2.11,0,1.38-.55,2.49-1.66,3.32s-2.54,1.25-4.3,1.25c-1.24,0-2.33-.22-3.28-.66-.95-.44-1.7-1.05-2.23-1.83-.54-.79-.81-1.63-.81-2.55h2.64c.05.89.4,1.59,1.06,2.11.66.52,1.53.78,2.62.78,1,0,1.8-.2,2.41-.61.6-.4.91-.94.91-1.62Z"/>
  </g>
  <g id="Connect">
    <g>
      <path class="cls-4" d="m67.25,124.58c-3.77,0-7.48-1.03-10.78-3.05-4.74-2.89-8.07-7.45-9.38-12.85-1.31-5.4-.44-10.98,2.46-15.72,2.89-4.74,7.45-8.07,12.85-9.38,5.39-1.31,10.98-.44,15.72,2.46h0c4.74,2.89,8.07,7.45,9.38,12.85,1.31,5.4.44,10.98-2.46,15.72-2.89,4.74-7.45,8.07-12.85,9.38-1.64.4-3.29.59-4.93.59Zm.06-35.58c-1.17,0-2.34.14-3.51.42-3.84.93-7.08,3.3-9.14,6.67-2.06,3.37-2.68,7.34-1.75,11.18.93,3.84,3.3,7.08,6.67,9.14s7.34,2.68,11.18,1.75c3.84-.93,7.08-3.3,9.14-6.67s2.68-7.34,1.75-11.18c-.93-3.84-3.3-7.08-6.67-9.14h0c-2.35-1.43-4.99-2.17-7.67-2.17Z"/>
      <path class="cls-2" d="m67.25,125.08c-3.88,0-7.7-1.08-11.04-3.12-4.85-2.96-8.26-7.63-9.6-13.16-1.34-5.53-.45-11.24,2.51-16.1,2.96-4.85,7.63-8.26,13.16-9.6,5.52-1.34,11.24-.45,16.09,2.51,4.85,2.96,8.26,7.63,9.6,13.16,1.34,5.53.45,11.24-2.51,16.1-2.96,4.85-7.63,8.26-13.16,9.6-1.66.4-3.36.61-5.05.61Zm.08-41.58c-1.6,0-3.22.19-4.81.58-5.27,1.27-9.72,4.52-12.54,9.15s-3.67,10.07-2.4,15.34c1.28,5.27,4.53,9.72,9.15,12.54,4.58,2.79,10.12,3.66,15.34,2.4,5.27-1.27,9.72-4.52,12.54-9.15,2.82-4.62,3.67-10.07,2.4-15.34s-4.53-9.72-9.15-12.54c-3.22-1.96-6.84-2.97-10.52-2.97Zm-.06,35.58c-2.77,0-5.5-.76-7.93-2.24-3.49-2.12-5.93-5.48-6.9-9.45-.96-3.97-.32-8.07,1.81-11.56,2.13-3.49,5.48-5.93,9.45-6.9,3.93-.95,8.1-.3,11.56,1.81,3.49,2.12,5.93,5.48,6.9,9.45.96,3.97.32,8.07-1.81,11.56-2.13,3.49-5.48,5.93-9.45,6.9-1.2.29-2.42.44-3.63.44Zm.05-29.58c-1.13,0-2.27.14-3.39.41-3.71.9-6.84,3.19-8.83,6.44-1.99,3.26-2.59,7.09-1.69,10.8.9,3.71,3.19,6.84,6.44,8.83,3.26,1.99,7.09,2.59,10.8,1.69,3.71-.9,6.84-3.19,8.83-6.44,1.99-3.26,2.59-7.09,1.69-10.8-.9-3.71-3.19-6.84-6.44-8.83-2.25-1.37-4.81-2.1-7.41-2.1Z"/>
    </g>
    <g>
      <path class="cls-4" d="m82.11,109.94c-.98,0-1.96-.07-2.94-.21-5.5-.77-10.36-3.64-13.7-8.08-3.34-4.43-4.75-9.9-3.98-15.4.77-5.5,3.64-10.36,8.08-13.7,9.15-6.89,22.21-5.06,29.1,4.1,6.89,9.15,5.06,22.21-4.1,29.1-3.64,2.74-7.98,4.19-12.46,4.19Zm-.06-35.56c-3.1,0-6.22.97-8.88,2.97-3.15,2.38-5.19,5.84-5.74,9.75-.55,3.91.45,7.8,2.83,10.96,2.38,3.15,5.84,5.19,9.75,5.75,3.91.55,7.8-.46,10.96-2.83,6.51-4.9,7.82-14.19,2.91-20.7-2.9-3.85-7.34-5.88-11.83-5.88Z"/>
      <path class="cls-2" d="m82.11,110.45c-1,0-2.01-.07-3.01-.21-5.63-.79-10.61-3.73-14.03-8.27-3.42-4.54-4.87-10.14-4.08-15.77.79-5.63,3.73-10.61,8.27-14.03,9.37-7.06,22.75-5.18,29.81,4.2s5.18,22.74-4.2,29.8c-3.72,2.8-8.14,4.29-12.76,4.29Zm-.07-41.56c-4.25,0-8.53,1.33-12.18,4.07-4.33,3.26-7.13,8.01-7.88,13.37-.75,5.37.62,10.7,3.88,15.03s8.01,7.13,13.37,7.88c.95.13,1.92.2,2.87.2,4.41,0,8.61-1.41,12.16-4.09,8.93-6.73,10.73-19.47,4-28.4-3.98-5.29-10.07-8.07-16.23-8.07Zm.05,35.56c-.72,0-1.44-.05-2.16-.15-4.04-.57-7.62-2.68-10.08-5.94-2.46-3.26-3.5-7.28-2.93-11.33.57-4.04,2.68-7.62,5.94-10.08,2.67-2.01,5.84-3.07,9.18-3.07,4.86,0,9.31,2.22,12.23,6.08,5.07,6.73,3.72,16.33-3.01,21.4-2.68,2.02-5.87,3.08-9.17,3.08Zm-.05-29.56c-3.12,0-6.08.99-8.58,2.87-3.05,2.3-5.02,5.64-5.55,9.42-.53,3.78.44,7.54,2.73,10.58,2.3,3.05,5.64,5.02,9.42,5.55,3.78.53,7.54-.44,10.58-2.74,6.29-4.74,7.55-13.71,2.81-20-2.72-3.61-6.89-5.68-11.43-5.68Z"/>
    </g>
  </g>
</svg>