<?xml version="1.0" encoding="UTF-8"?>
<svg id="App" xmlns="http://www.w3.org/2000/svg" viewBox="0 0 131 122">
  <defs>
    <style>
      .cls-1 {
        fill: #fefefe;
      }

      .cls-1, .cls-2, .cls-3 {
        stroke: #4f4f4f;
        stroke-miterlimit: 10;
      }

      .cls-2 {
        fill: #ffaf7b;
      }

      .cls-3 {
        fill: #32b9ad;
      }
    </style>
  </defs>
  <g id="Nav-bar">
    <g id="Chat">
      <path class="cls-2" d="m34.26,92.56c0-2.62,0-5.2,0-7.77,0-3.72-.01-7.45.06-11.17.02-1.04-.4-1.17-1.28-1.18-3.42-.06-6.85.27-10.26-.2-6.63-.92-11.98-6.64-12.05-13.34-.13-13.03-.14-26.06,0-39.1.08-7.25,6.28-13.23,13.51-13.47.54-.02,1.08-.03,1.61-.03,22.85,0,45.71.13,68.56-.07,8.85-.07,15.61,6.64,15.32,15.42-.21,6.46-.02,12.93-.06,19.4,0,.94.26,1.32,1.18,1.62,5.2,1.74,8.53,6.25,8.57,11.75.06,10.58.08,21.17,0,31.75-.05,7.05-5.49,12.37-12.55,12.48-3.13.05-6.26.06-9.39-.02-1.06-.02-1.3.31-1.28,1.32.09,4.95.11,9.9.14,14.84,0,.38.2.89-.13,1.11-.44.29-.78-.22-1.13-.44-8.64-5.36-17.28-10.72-25.91-16.11-.78-.49-1.55-.71-2.47-.7-6.17.03-12.33.03-18.5.01-4.96-.01-9.09-1.78-11.94-5.96-.7-1.03-1.24-.15-2.02-.16Z"/>
      <path class="cls-1" d="m41.35,80.26c0-4.66-.05-9.06.03-13.45.02-1.19-.35-1.45-1.48-1.44-4.8.06-9.59.03-14.39.02-4.79-.01-7.79-2.99-7.8-7.79-.02-12.2-.02-24.4,0-36.6,0-4.68,2.94-7.63,7.61-7.64,23.25-.02,46.49-.02,69.74,0,4.61,0,7.58,3.05,7.59,7.68.01,12.05,0,24.11,0,36.16,0,5.2-2.96,8.15-8.21,8.16-8.86,0-17.72.02-26.58-.02-1.18,0-2.16.29-3.16.9-7.27,4.4-14.56,8.77-21.85,13.14-.41.25-.84.49-1.52.88Z"/>
      <path class="cls-3" d="m109.71,49.9c1.77,1.22,2.66,2.61,2.66,4.53,0,10.58.01,21.17-.01,31.75,0,3.18-2.37,5.41-5.69,5.42-5.33.03-10.67.05-16-.02-1.24-.02-1.57.36-1.54,1.57.08,3.33.03,6.65.03,10.29-2.21-1.35-4.23-2.59-6.24-3.84-3.95-2.45-7.9-4.89-11.83-7.36-.74-.46-1.47-.65-2.34-.65-6.95.03-13.9.01-20.85.01-2.05,0-3.82-.7-5.3-2.12-.73-.7-.73-1.19.25-1.77,8.23-4.9,16.43-9.85,24.63-14.8.68-.41,1.37-.43,2.11-.43,8.42,0,16.84,0,25.25,0,7.71,0,13.47-4.81,14.8-12.35.08-.48.06-.98.06-1.47,0-2.84,0-5.68,0-8.79Z"/>
    </g>
  </g>
</svg>