<?xml version="1.0" encoding="UTF-8"?>
<svg id="App" xmlns="http://www.w3.org/2000/svg" xmlns:xlink="http://www.w3.org/1999/xlink" viewBox="0 0 658 220">
  <defs>
    <style>
      .cls-1 {
        clip-path: url(#clippath);
      }

      .cls-2 {
        fill: none;
      }

      .cls-2, .cls-3, .cls-4, .cls-5, .cls-6, .cls-7, .cls-8, .cls-9, .cls-10, .cls-11, .cls-12, .cls-13, .cls-14, .cls-15, .cls-16, .cls-17, .cls-18, .cls-19, .cls-20, .cls-21, .cls-22, .cls-23, .cls-24, .cls-25, .cls-26, .cls-27, .cls-28, .cls-29, .cls-30, .cls-31, .cls-32, .cls-33, .cls-34, .cls-35, .cls-36, .cls-37, .cls-38, .cls-39, .cls-40, .cls-41, .cls-42, .cls-43, .cls-44, .cls-45, .cls-46, .cls-47, .cls-48, .cls-49, .cls-50, .cls-51, .cls-52, .cls-53, .cls-54, .cls-55, .cls-56, .cls-57, .cls-58, .cls-59, .cls-60, .cls-61, .cls-62, .cls-63, .cls-64, .cls-65, .cls-66, .cls-67, .cls-68, .cls-69, .cls-70, .cls-71, .cls-72, .cls-73, .cls-74, .cls-75, .cls-76, .cls-77, .cls-78, .cls-79, .cls-80, .cls-81, .cls-82, .cls-83, .cls-84, .cls-85, .cls-86, .cls-87, .cls-88, .cls-89, .cls-90, .cls-91, .cls-92, .cls-93, .cls-94, .cls-95, .cls-96, .cls-97, .cls-98, .cls-99, .cls-100, .cls-101, .cls-102, .cls-103, .cls-104, .cls-105, .cls-106, .cls-107, .cls-108, .cls-109, .cls-110, .cls-111, .cls-112, .cls-113, .cls-114, .cls-115, .cls-116, .cls-117, .cls-118, .cls-119, .cls-120, .cls-121, .cls-122, .cls-123, .cls-124, .cls-125, .cls-126, .cls-127, .cls-128, .cls-129, .cls-130, .cls-131, .cls-132, .cls-133, .cls-134, .cls-135, .cls-136, .cls-137, .cls-138, .cls-139, .cls-140, .cls-141, .cls-142, .cls-143, .cls-144 {
        stroke-width: 0px;
      }

      .cls-4 {
        fill: #f4b07e;
      }

      .cls-5 {
        fill: #f8af7d;
      }

      .cls-6 {
        fill: #f3b07e;
      }

      .cls-7 {
        fill: #f7af7d;
      }

      .cls-8 {
        fill: #faaf7c;
      }

      .cls-9 {
        fill: #f9af7c;
      }

      .cls-10 {
        fill: #f9af7d;
      }

      .cls-11 {
        fill: #61b7a2;
      }

      .cls-12 {
        fill: #5eb7a2;
      }

      .cls-13 {
        fill: #5cb7a3;
      }

      .cls-14 {
        fill: #4bb8a7;
      }

      .cls-15 {
        fill: #76b69c;
      }

      .cls-16 {
        fill: #74b69d;
      }

      .cls-17 {
        fill: #78b69c;
      }

      .cls-18 {
        fill: #4f4f4f;
      }

      .cls-19 {
        fill: #82b599;
      }

      .cls-20 {
        fill: #4eb8a6;
      }

      .cls-21 {
        fill: #50b8a6;
      }

      .cls-22 {
        fill: #7ab59b;
      }

      .cls-23 {
        fill: #53b7a5;
      }

      .cls-24 {
        fill: #5ab7a3;
      }

      .cls-25 {
        fill: #47b8a8;
      }

      .cls-26 {
        fill: #49b8a7;
      }

      .cls-27 {
        fill: #63b7a1;
      }

      .cls-28 {
        fill: #6cb69f;
      }

      .cls-29 {
        fill: #9ab494;
      }

      .cls-30 {
        fill: #44b8a9;
      }

      .cls-31 {
        fill: #95b495;
      }

      .cls-32 {
        fill: #88b598;
      }

      .cls-33 {
        fill: #a2b492;
      }

      .cls-34 {
        fill: #70b69e;
      }

      .cls-35 {
        fill: #a1b492;
      }

      .cls-36 {
        fill: #6eb69e;
      }

      .cls-37 {
        fill: #93b495;
      }

      .cls-38 {
        fill: #32b9ad;
      }

      .cls-39 {
        fill: #37b9ac;
      }

      .cls-40 {
        fill: #55b7a4;
      }

      .cls-41 {
        fill: #57b7a4;
      }

      .cls-42 {
        fill: #3ab9ab;
      }

      .cls-43 {
        fill: #3cb8aa;
      }

      .cls-44 {
        fill: #35b9ac;
      }

      .cls-45 {
        fill: #3fb8aa;
      }

      .cls-46 {
        fill: #42b8a9;
      }

      .cls-47 {
        fill: #a7b390;
      }

      .cls-48 {
        fill: #c4b289;
      }

      .cls-49 {
        fill: #d1b186;
      }

      .cls-50 {
        fill: #d2b186;
      }

      .cls-51 {
        fill: #cbb288;
      }

      .cls-52 {
        fill: #ddb183;
      }

      .cls-53 {
        fill: #deb183;
      }

      .cls-54 {
        fill: #d0b187;
      }

      .cls-55 {
        fill: #c9b288;
      }

      .cls-56 {
        fill: #cab288;
      }

      .cls-57 {
        fill: #c3b28a;
      }

      .cls-58 {
        fill: #ccb187;
      }

      .cls-59 {
        fill: #d9b184;
      }

      .cls-60 {
        fill: #acb38f;
      }

      .cls-61 {
        fill: #c7b289;
      }

      .cls-62 {
        fill: #d7b185;
      }

      .cls-63 {
        fill: #d4b186;
      }

      .cls-64 {
        fill: #c5b289;
      }

      .cls-65 {
        fill: #dbb184;
      }

      .cls-66 {
        fill: #e2b082;
      }

      .cls-67 {
        fill: #dfb183;
      }

      .cls-68 {
        fill: #e1b082;
      }

      .cls-69 {
        fill: #c8b288;
      }

      .cls-70 {
        fill: #d6b185;
      }

      .cls-71 {
        fill: #d5b185;
      }

      .cls-72 {
        fill: #dcb183;
      }

      .cls-73 {
        fill: #d3b186;
      }

      .cls-74 {
        fill: #dab184;
      }

      .cls-75 {
        fill: #e0b183;
      }

      .cls-76 {
        fill: #bdb28b;
      }

      .cls-77 {
        fill: #beb28b;
      }

      .cls-78 {
        fill: #aab390;
      }

      .cls-79 {
        fill: #bfb28b;
      }

      .cls-80 {
        fill: #d8b185;
      }

      .cls-81 {
        fill: #a4b391;
      }

      .cls-82 {
        fill: #afb38f;
      }

      .cls-83 {
        fill: #adb38f;
      }

      .cls-84 {
        fill: #b0b38e;
      }

      .cls-85 {
        fill: #a9b390;
      }

      .cls-86 {
        fill: #a6b391;
      }

      .cls-87 {
        fill: #bbb28b;
      }

      .cls-88 {
        fill: #b2b38e;
      }

      .cls-89 {
        fill: #cfb187;
      }

      .cls-90 {
        fill: #ceb187;
      }

      .cls-91 {
        fill: #84b599;
      }

      .cls-92 {
        fill: #b4b38d;
      }

      .cls-93 {
        fill: #b7b28c;
      }

      .cls-94 {
        fill: #9cb493;
      }

      .cls-95 {
        fill: #9db493;
      }

      .cls-96 {
        fill: #b9b28c;
      }

      .cls-97 {
        fill: #8cb597;
      }

      .cls-98 {
        fill: #c2b28a;
      }

      .cls-99 {
        fill: #8fb496;
      }

      .cls-100 {
        fill: #b3b38e;
      }

      .cls-101 {
        fill: #b6b38d;
      }

      .cls-102 {
        fill: #c1b28a;
      }

      .cls-103 {
        fill: #65b7a1;
      }

      .cls-104 {
        fill: #72b69d;
      }

      .cls-105 {
        fill: #bab28c;
      }

      .cls-106 {
        fill: #8eb597;
      }

      .cls-107 {
        fill: #97b494;
      }

      .cls-108 {
        fill: #7cb59b;
      }

      .cls-109 {
        fill: #8ab598;
      }

      .cls-110 {
        fill: #9fb492;
      }

      .cls-111 {
        fill: #86b598;
      }

      .cls-112 {
        fill: #feaf7b;
      }

      .cls-113 {
        fill: #91b496;
      }

      .cls-114 {
        fill: #80b59a;
      }

      .cls-115 {
        fill: #7eb59a;
      }

      .cls-116 {
        fill: #98b494;
      }

      .cls-117 {
        fill: #f2b07e;
      }

      .cls-118 {
        fill: #ffaf7b;
      }

      .cls-119 {
        fill: #e4b081;
      }

      .cls-120 {
        fill: #e4b082;
      }

      .cls-121 {
        fill: #e7b081;
      }

      .cls-122 {
        fill: #e9b080;
      }

      .cls-123 {
        fill: #eeb07f;
      }

      .cls-124 {
        fill: #f0b07f;
      }

      .cls-125 {
        fill: #e5b081;
      }

      .cls-126 {
        fill: #fbaf7c;
      }

      .cls-127 {
        fill: #e3b082;
      }

      .cls-128 {
        fill: #e6b081;
      }

      .cls-129 {
        fill: #fdaf7b;
      }

      .cls-130 {
        fill: #fdaf7c;
      }

      .cls-131 {
        fill: #edb07f;
      }

      .cls-132 {
        fill: #fbe8da;
      }

      .cls-133 {
        fill: #fcaf7c;
      }

      .cls-134 {
        fill: #ebb080;
      }

      .cls-135 {
        fill: #efb07f;
      }

      .cls-136 {
        fill: #ecb080;
      }

      .cls-137 {
        fill: #f1b07e;
      }

      .cls-138 {
        fill: #f6af7d;
      }

      .cls-139 {
        fill: #e8b081;
      }

      .cls-140 {
        fill: #eab080;
      }

      .cls-141 {
        fill: #f5b07e;
      }

      .cls-142 {
        fill: #f5af7d;
      }

      .cls-143 {
        fill: #69b69f;
      }

      .cls-144 {
        fill: #67b6a0;
      }
    </style>
    <clipPath id="clippath">
      <path class="cls-2" d="m117.69,52.51c-3.67.2-7.37.14-11,.65-16.33,2.3-29.46,10.62-40.8,22.16-9.52,9.69-15.67,21.09-17.56,34.66-2.61,18.8,8.13,41.63,24.42,51.24,3.64,2.14,7.82,3.37,11.95,5.11-1.14.35-2.31.78-3.52,1.06-10.98,2.48-21.71,1.58-32.32-2.09-8.34-2.88-13.29-9.37-17.63-16.37-15.32-24.69-13.39-55.56,5.52-77.61,19.27-22.48,43.54-30.52,72.49-22.64,2.95.8,5.75,2.19,8.61,3.31-.06.17-.12.35-.18.52Z"/>
    </clipPath>
  </defs>
  <g>
    <path class="cls-18" d="m88.88,189.27c-40.79-.17-75.15-35.08-74.92-76.15.22-40.3,35.11-74.41,75.95-74.25,40.91.16,75.17,34.74,74.99,75.69-.18,40.8-34.86,74.88-76.02,74.71Zm34.75-72.16c.04-15.54-7.82-30.93-18.99-39.19-10.44-7.72-21.96-7.59-31.7,1.04-25.15,22.28-21.84,55.58.56,74.24,9.47,7.88,22.66,7.78,32.1-.11,11.82-9.88,17.4-22.78,18.02-35.98Zm-5.94-64.59c.06-.17.12-.35.18-.52-2.87-1.12-5.66-2.51-8.61-3.31-28.96-7.88-53.22.16-72.49,22.64-18.91,22.05-20.84,52.92-5.52,77.61,4.34,7,9.29,13.49,17.63,16.37,10.61,3.67,21.35,4.57,32.32,2.09,1.21-.27,2.38-.71,3.52-1.06-4.14-1.74-8.32-2.96-11.95-5.11-16.3-9.6-27.04-32.44-24.42-51.24,1.89-13.57,8.04-24.97,17.56-34.66,11.34-11.54,24.47-19.86,40.8-22.16,3.62-.51,7.33-.45,11-.65Zm-55.81,122.94c-.08.26-.17.51-.25.77,2.86,1.08,5.65,2.41,8.58,3.2,24.9,6.72,46.88,1.29,65.77-16.24,24.75-22.97,28.83-59.93,9.6-87.26-4.55-6.46-9.75-12.37-17.84-14.6-8.4-2.31-16.85-2.57-25.28-.29-3.35.91-6.57,2.32-10.49,3.72,1.06.55,1.33.78,1.63.83,8.67,1.53,15.77,5.92,21.63,12.29,11.35,12.33,17.66,26.79,15.18,43.66-3.94,26.76-20.51,43.16-45.28,52.02-7.5,2.68-15.38,2.73-23.26,1.89Z"/>
    <path class="cls-132" d="m123.63,117.11c-.62,13.21-6.21,26.1-18.02,35.98-9.44,7.89-22.64,7.99-32.1.11-22.4-18.66-25.71-51.96-.56-74.24,9.74-8.63,21.26-8.76,31.7-1.04,11.16,8.26,19.02,23.65,18.99,39.19Z"/>
    <g class="cls-1">
      <polygon class="cls-38" points="117.88 78.48 15.93 74.8 15.93 42.76 16 40.8 117.88 40.8 117.88 78.48"/>
      <polygon class="cls-38" points="117.88 78.95 15.93 75.27 15.93 74.8 117.88 78.48 117.88 78.95"/>
      <polygon class="cls-44" points="117.88 79.42 15.93 75.74 15.93 75.27 117.88 78.95 117.88 79.42"/>
      <polygon class="cls-39" points="117.88 79.89 15.93 76.21 15.93 75.74 117.88 79.42 117.88 79.89"/>
      <polygon class="cls-42" points="117.88 80.36 15.93 76.68 15.93 76.21 117.88 79.89 117.88 80.36"/>
      <polygon class="cls-43" points="117.88 80.83 15.93 77.15 15.93 76.68 117.88 80.36 117.88 80.83"/>
      <polygon class="cls-45" points="117.88 81.3 15.93 77.62 15.93 77.15 117.88 80.83 117.88 81.3"/>
      <polygon class="cls-46" points="117.88 81.77 15.93 78.09 15.93 77.62 117.88 81.3 117.88 81.77"/>
      <polygon class="cls-30" points="117.88 82.24 15.93 78.56 15.93 78.09 117.88 81.77 117.88 82.24"/>
      <polygon class="cls-25" points="117.88 82.71 15.93 79.03 15.93 78.56 117.88 82.24 117.88 82.71"/>
      <polygon class="cls-26" points="117.88 83.18 15.93 79.5 15.93 79.03 117.88 82.71 117.88 83.18"/>
      <polygon class="cls-14" points="117.88 83.65 15.93 79.97 15.93 79.5 117.88 83.18 117.88 83.65"/>
      <polygon class="cls-20" points="117.88 84.12 15.93 80.44 15.93 79.97 117.88 83.65 117.88 84.12"/>
      <polygon class="cls-21" points="117.88 84.59 15.93 80.91 15.93 80.44 117.88 84.12 117.88 84.59"/>
      <polygon class="cls-23" points="117.88 85.06 15.93 81.38 15.93 80.91 117.88 84.59 117.88 85.06"/>
      <polygon class="cls-40" points="117.88 85.53 15.93 81.85 15.93 81.38 117.88 85.06 117.88 85.53"/>
      <polygon class="cls-41" points="117.88 86 15.93 82.32 15.93 81.85 117.88 85.53 117.88 86"/>
      <polygon class="cls-24" points="117.88 86.47 15.93 82.79 15.93 82.32 117.88 86 117.88 86.47"/>
      <polygon class="cls-13" points="117.88 86.94 15.93 83.26 15.93 82.79 117.88 86.47 117.88 86.94"/>
      <polygon class="cls-12" points="117.88 87.41 15.93 83.73 15.93 83.26 117.88 86.94 117.88 87.41"/>
      <polygon class="cls-11" points="117.88 87.88 15.93 84.2 15.93 83.73 117.88 87.41 117.88 87.88"/>
      <polygon class="cls-27" points="117.88 88.35 15.93 84.67 15.93 84.2 117.88 87.88 117.88 88.35"/>
      <polygon class="cls-103" points="117.88 88.82 15.93 85.14 15.93 84.67 117.88 88.35 117.88 88.82"/>
      <polygon class="cls-144" points="117.88 89.29 15.93 85.61 15.93 85.14 117.88 88.82 117.88 89.29"/>
      <polygon class="cls-143" points="117.88 89.76 15.93 86.08 15.93 85.61 117.88 89.29 117.88 89.76"/>
      <polygon class="cls-28" points="117.88 90.23 15.93 86.55 15.93 86.08 117.88 89.76 117.88 90.23"/>
      <polygon class="cls-36" points="117.88 90.7 15.93 87.02 15.93 86.55 117.88 90.23 117.88 90.7"/>
      <polygon class="cls-34" points="117.88 91.17 15.93 87.49 15.93 87.02 117.88 90.7 117.88 91.17"/>
      <polygon class="cls-104" points="117.88 91.64 15.93 87.96 15.93 87.49 117.88 91.17 117.88 91.64"/>
      <polygon class="cls-16" points="117.88 92.11 15.93 88.43 15.93 87.96 117.88 91.64 117.88 92.11"/>
      <polygon class="cls-15" points="117.88 92.58 15.93 88.9 15.93 88.43 117.88 92.11 117.88 92.58"/>
      <polygon class="cls-17" points="117.88 93.05 15.93 89.37 15.93 88.9 117.88 92.58 117.88 93.05"/>
      <polygon class="cls-22" points="117.88 93.52 15.93 89.84 15.93 89.37 117.88 93.05 117.88 93.52"/>
      <polygon class="cls-108" points="117.88 93.99 15.93 90.31 15.93 89.84 117.88 93.52 117.88 93.99"/>
      <polygon class="cls-115" points="117.88 94.46 15.93 90.78 15.93 90.31 117.88 93.99 117.88 94.46"/>
      <polygon class="cls-114" points="117.88 94.93 15.93 91.25 15.93 90.78 117.88 94.46 117.88 94.93"/>
      <polygon class="cls-19" points="117.88 95.4 15.93 91.72 15.93 91.25 117.88 94.93 117.88 95.4"/>
      <polygon class="cls-91" points="117.88 95.87 15.93 92.19 15.93 91.72 117.88 95.4 117.88 95.87"/>
      <polygon class="cls-111" points="117.88 96.34 15.93 92.66 15.93 92.19 117.88 95.87 117.88 96.34"/>
      <polygon class="cls-32" points="117.88 96.81 15.93 93.13 15.93 92.66 117.88 96.34 117.88 96.81"/>
      <polygon class="cls-109" points="117.88 97.28 15.93 93.6 15.93 93.13 117.88 96.81 117.88 97.28"/>
      <polygon class="cls-97" points="117.88 97.75 15.93 94.07 15.93 93.6 117.88 97.28 117.88 97.75"/>
      <polygon class="cls-106" points="117.88 98.22 15.93 94.54 15.93 94.07 117.88 97.75 117.88 98.22"/>
      <polygon class="cls-99" points="117.88 98.69 15.93 95.01 15.93 94.54 117.88 98.22 117.88 98.69"/>
      <polygon class="cls-113" points="117.88 99.16 15.93 95.48 15.93 95.01 117.88 98.69 117.88 99.16"/>
      <polygon class="cls-37" points="117.88 99.63 15.93 95.95 15.93 95.48 117.88 99.16 117.88 99.63"/>
      <polygon class="cls-31" points="117.88 100.1 15.93 96.42 15.93 95.95 117.88 99.63 117.88 100.1"/>
      <polygon class="cls-107" points="117.88 100.57 15.93 96.89 15.93 96.42 117.88 100.1 117.88 100.57"/>
      <polygon class="cls-116" points="117.88 101.03 15.93 97.35 15.93 96.89 117.88 100.57 117.88 101.03"/>
      <polygon class="cls-29" points="117.88 101.5 15.93 97.82 15.93 97.35 117.88 101.03 117.88 101.5"/>
      <polygon class="cls-94" points="117.88 101.97 15.93 98.29 15.93 97.82 117.88 101.5 117.88 101.97"/>
      <polygon class="cls-95" points="117.88 102.44 15.93 98.76 15.93 98.29 117.88 101.97 117.88 102.44"/>
      <polygon class="cls-110" points="117.88 102.91 15.93 99.23 15.93 98.76 117.88 102.44 117.88 102.91"/>
      <polygon class="cls-35" points="117.88 103.38 15.93 99.7 15.93 99.23 117.88 102.91 117.88 103.38"/>
      <polygon class="cls-33" points="117.88 103.85 15.93 100.17 15.93 99.7 117.88 103.38 117.88 103.85"/>
      <polygon class="cls-81" points="117.88 104.32 15.93 100.64 15.93 100.17 117.88 103.85 117.88 104.32"/>
      <polygon class="cls-86" points="117.88 104.79 15.93 101.11 15.93 100.64 117.88 104.32 117.88 104.79"/>
      <polygon class="cls-47" points="117.88 105.26 15.93 101.58 15.93 101.11 117.88 104.79 117.88 105.26"/>
      <polygon class="cls-85" points="117.88 105.73 15.93 102.05 15.93 101.58 117.88 105.26 117.88 105.73"/>
      <polygon class="cls-78" points="117.88 106.2 15.93 102.52 15.93 102.05 117.88 105.73 117.88 106.2"/>
      <polygon class="cls-60" points="117.88 106.67 15.93 102.99 15.93 102.52 117.88 106.2 117.88 106.67"/>
      <polygon class="cls-83" points="117.88 107.14 15.93 103.46 15.93 102.99 117.88 106.67 117.88 107.14"/>
      <polygon class="cls-82" points="117.88 107.61 15.93 103.93 15.93 103.46 117.88 107.14 117.88 107.61"/>
      <polygon class="cls-84" points="117.88 108.08 15.93 104.4 15.93 103.93 117.88 107.61 117.88 108.08"/>
      <polygon class="cls-88" points="117.88 108.55 15.93 104.87 15.93 104.4 117.88 108.08 117.88 108.55"/>
      <polygon class="cls-100" points="117.88 109.02 15.93 105.34 15.93 104.87 117.88 108.55 117.88 109.02"/>
      <polygon class="cls-92" points="117.88 109.49 15.93 105.81 15.93 105.34 117.88 109.02 117.88 109.49"/>
      <polygon class="cls-101" points="117.88 109.96 15.93 106.28 15.93 105.81 117.88 109.49 117.88 109.96"/>
      <polygon class="cls-93" points="117.88 110.43 15.93 106.75 15.93 106.28 117.88 109.96 117.88 110.43"/>
      <polygon class="cls-96" points="117.88 110.9 15.93 107.22 15.93 106.75 117.88 110.43 117.88 110.9"/>
      <polygon class="cls-105" points="117.88 111.37 15.93 107.69 15.93 107.22 117.88 110.9 117.88 111.37"/>
      <polygon class="cls-87" points="117.88 111.84 15.93 108.16 15.93 107.69 117.88 111.37 117.88 111.84"/>
      <polygon class="cls-76" points="117.88 112.31 15.93 108.63 15.93 108.16 117.88 111.84 117.88 112.31"/>
      <polygon class="cls-77" points="117.88 112.78 15.93 109.1 15.93 108.63 117.88 112.31 117.88 112.78"/>
      <polygon class="cls-79" points="117.88 113.25 15.93 109.57 15.93 109.1 117.88 112.78 117.88 113.25"/>
      <polygon class="cls-102" points="117.88 113.72 15.93 110.04 15.93 109.57 117.88 113.25 117.88 113.72"/>
      <polygon class="cls-98" points="117.88 114.19 15.93 110.51 15.93 110.04 117.88 113.72 117.88 114.19"/>
      <polygon class="cls-57" points="117.88 114.66 15.93 110.98 15.93 110.51 117.88 114.19 117.88 114.66"/>
      <polygon class="cls-48" points="117.88 115.13 15.93 111.45 15.93 110.98 117.88 114.66 117.88 115.13"/>
      <polygon class="cls-64" points="117.88 115.6 15.93 111.92 15.93 111.45 117.88 115.13 117.88 115.6"/>
      <polygon class="cls-61" points="117.88 116.07 15.93 112.39 15.93 111.92 117.88 115.6 117.88 116.07"/>
      <polygon class="cls-69" points="117.88 116.54 15.93 112.86 15.93 112.39 117.88 116.07 117.88 116.54"/>
      <polygon class="cls-55" points="117.88 117.01 15.93 113.33 15.93 112.86 117.88 116.54 117.88 117.01"/>
      <polygon class="cls-56" points="117.88 117.48 15.93 113.8 15.93 113.33 117.88 117.01 117.88 117.48"/>
      <polygon class="cls-51" points="117.88 117.95 15.93 114.27 15.93 113.8 117.88 117.48 117.88 117.95"/>
      <polygon class="cls-58" points="117.88 118.42 15.93 114.74 15.93 114.27 117.88 117.95 117.88 118.42"/>
      <polygon class="cls-90" points="117.88 118.89 15.93 115.21 15.93 114.74 117.88 118.42 117.88 118.89"/>
      <polygon class="cls-89" points="117.88 119.36 15.93 115.68 15.93 115.21 117.88 118.89 117.88 119.36"/>
      <polygon class="cls-54" points="117.88 119.83 15.93 116.15 15.93 115.68 117.88 119.36 117.88 119.83"/>
      <polygon class="cls-49" points="117.88 120.3 15.93 116.62 15.93 116.15 117.88 119.83 117.88 120.3"/>
      <polygon class="cls-50" points="117.88 120.77 15.93 117.09 15.93 116.62 117.88 120.3 117.88 120.77"/>
      <polygon class="cls-73" points="117.88 121.24 15.93 117.56 15.93 117.09 117.88 120.77 117.88 121.24"/>
      <polygon class="cls-63" points="117.88 121.71 15.93 118.03 15.93 117.56 117.88 121.24 117.88 121.71"/>
      <polygon class="cls-71" points="117.88 122.18 15.93 118.5 15.93 118.03 117.88 121.71 117.88 122.18"/>
      <polygon class="cls-70" points="117.88 122.65 15.93 118.97 15.93 118.5 117.88 122.18 117.88 122.65"/>
      <polygon class="cls-62" points="117.88 123.12 15.93 119.44 15.93 118.97 117.88 122.65 117.88 123.12"/>
      <polygon class="cls-80" points="117.88 123.59 15.93 119.91 15.93 119.44 117.88 123.12 117.88 123.59"/>
      <polygon class="cls-59" points="117.88 124.06 15.93 120.38 15.93 119.91 117.88 123.59 117.88 124.06"/>
      <polygon class="cls-74" points="117.88 124.53 15.93 120.85 15.93 120.38 117.88 124.06 117.88 124.53"/>
      <polygon class="cls-65" points="117.88 125 15.93 121.32 15.93 120.85 117.88 124.53 117.88 125"/>
      <polygon class="cls-65" points="117.88 125.47 15.93 121.79 15.93 121.32 117.88 125 117.88 125.47"/>
      <polygon class="cls-72" points="117.88 125.94 15.93 122.26 15.93 121.79 117.88 125.47 117.88 125.94"/>
      <polygon class="cls-52" points="117.88 126.41 15.93 122.73 15.93 122.26 117.88 125.94 117.88 126.41"/>
      <polygon class="cls-53" points="117.88 126.88 15.93 123.2 15.93 122.73 117.88 126.41 117.88 126.88"/>
      <polygon class="cls-67" points="117.88 127.35 15.93 123.67 15.93 123.2 117.88 126.88 117.88 127.35"/>
      <polygon class="cls-75" points="117.88 127.82 15.93 124.14 15.93 123.67 117.88 127.35 117.88 127.82"/>
      <polygon class="cls-68" points="117.88 128.29 15.93 124.61 15.93 124.14 117.88 127.82 117.88 128.29"/>
      <polygon class="cls-68" points="117.88 128.76 15.93 125.08 15.93 124.61 117.88 128.29 117.88 128.76"/>
      <polygon class="cls-66" points="117.88 129.23 15.93 125.55 15.93 125.08 117.88 128.76 117.88 129.23"/>
      <polygon class="cls-127" points="117.88 129.7 15.93 126.02 15.93 125.55 117.88 129.23 117.88 129.7"/>
      <polygon class="cls-120" points="117.88 130.17 15.93 126.49 15.93 126.02 117.88 129.7 117.88 130.17"/>
      <polygon class="cls-119" points="117.88 130.64 15.93 126.96 15.93 126.49 117.88 130.17 117.88 130.64"/>
      <polygon class="cls-125" points="117.88 131.11 15.93 127.43 15.93 126.96 117.88 130.64 117.88 131.11"/>
      <polygon class="cls-128" points="117.88 131.58 15.93 127.9 15.93 127.43 117.88 131.11 117.88 131.58"/>
      <polygon class="cls-121" points="117.88 132.05 15.93 128.37 15.93 127.9 117.88 131.58 117.88 132.05"/>
      <polygon class="cls-121" points="117.88 132.52 15.93 128.84 15.93 128.37 117.88 132.05 117.88 132.52"/>
      <polygon class="cls-139" points="117.88 132.99 15.93 129.31 15.93 128.84 117.88 132.52 117.88 132.99"/>
      <polygon class="cls-122" points="117.88 133.46 15.93 129.78 15.93 129.31 117.88 132.99 117.88 133.46"/>
      <polygon class="cls-122" points="117.88 133.47 117.86 133.92 15.93 130.24 15.93 129.78 117.88 133.46 117.88 133.47"/>
      <polygon class="cls-140" points="117.86 133.92 117.84 134.39 15.93 130.71 15.93 130.24 117.86 133.92"/>
      <polygon class="cls-134" points="117.84 134.39 117.83 134.86 15.93 131.18 15.93 130.71 117.84 134.39"/>
      <polygon class="cls-134" points="117.83 134.86 117.81 135.33 15.93 131.65 15.93 131.18 117.83 134.86"/>
      <polygon class="cls-136" points="117.81 135.33 117.79 135.8 15.93 132.12 15.93 131.65 117.81 135.33"/>
      <polygon class="cls-136" points="117.79 135.8 117.77 136.27 15.93 132.59 15.93 132.12 117.79 135.8"/>
      <polygon class="cls-131" points="117.77 136.27 117.76 136.74 15.93 133.06 15.93 132.59 117.77 136.27"/>
      <polygon class="cls-123" points="117.76 136.74 117.74 137.21 15.93 133.53 15.93 133.06 117.76 136.74"/>
      <polygon class="cls-123" points="117.74 137.21 117.72 137.68 15.93 134 15.93 133.53 117.74 137.21"/>
      <polygon class="cls-135" points="117.72 137.68 117.71 138.15 15.93 134.47 15.93 134 117.72 137.68"/>
      <polygon class="cls-135" points="117.71 138.15 117.69 138.62 15.93 134.94 15.93 134.47 117.71 138.15"/>
      <polygon class="cls-124" points="117.69 138.62 117.67 139.09 15.93 135.41 15.93 134.94 117.69 138.62"/>
      <polygon class="cls-124" points="117.67 139.09 117.66 139.56 15.93 135.88 15.93 135.41 117.67 139.09"/>
      <polygon class="cls-137" points="117.66 139.56 117.64 140.02 15.93 136.35 15.93 135.88 117.66 139.56"/>
      <polygon class="cls-137" points="117.64 140.02 117.62 140.49 15.93 136.82 15.93 136.35 117.64 140.02"/>
      <polygon class="cls-117" points="117.62 140.49 117.61 140.96 15.93 137.29 15.93 136.82 117.62 140.49"/>
      <polygon class="cls-117" points="117.61 140.96 117.59 141.43 15.93 137.76 15.93 137.29 117.61 140.96"/>
      <polygon class="cls-6" points="117.59 141.43 117.57 141.9 15.93 138.23 15.93 137.76 117.59 141.43"/>
      <polygon class="cls-6" points="117.57 141.9 117.55 142.37 15.93 138.7 15.93 138.23 117.57 141.9"/>
      <polygon class="cls-4" points="117.55 142.37 117.54 142.84 15.93 139.17 15.93 138.7 117.55 142.37"/>
      <polygon class="cls-4" points="117.54 142.84 117.52 143.31 15.93 139.64 15.93 139.17 117.54 142.84"/>
      <polygon class="cls-141" points="117.52 143.31 117.5 143.78 15.93 140.11 15.93 139.64 117.52 143.31"/>
      <polygon class="cls-142" points="117.5 143.78 117.49 144.25 15.93 140.58 15.93 140.11 117.5 143.78"/>
      <polygon class="cls-142" points="117.49 144.25 117.47 144.72 15.93 141.05 15.93 140.58 117.49 144.25"/>
      <polygon class="cls-138" points="117.47 144.72 117.45 145.19 15.93 141.52 15.93 141.05 117.47 144.72"/>
      <polygon class="cls-138" points="117.45 145.19 117.44 145.66 15.93 141.99 15.93 141.52 117.45 145.19"/>
      <polygon class="cls-7" points="117.44 145.66 117.42 146.12 15.93 142.46 15.93 141.99 117.44 145.66"/>
      <polygon class="cls-7" points="117.42 146.12 117.4 146.59 15.93 142.93 15.93 142.46 117.42 146.12"/>
      <polygon class="cls-7" points="117.4 146.59 117.39 147.06 15.93 143.4 15.93 142.93 117.4 146.59"/>
      <polygon class="cls-5" points="117.39 147.06 117.37 147.53 15.93 143.87 15.93 143.4 117.39 147.06"/>
      <polygon class="cls-5" points="117.37 147.53 117.35 148 15.93 144.34 15.93 143.87 117.37 147.53"/>
      <polygon class="cls-5" points="117.35 148 117.33 148.47 15.93 144.81 15.93 144.34 117.35 148"/>
      <polygon class="cls-10" points="117.33 148.47 117.32 148.94 15.93 145.28 15.93 144.81 117.33 148.47"/>
      <polygon class="cls-9" points="117.32 148.94 117.3 149.41 15.93 145.75 15.93 145.28 117.32 148.94"/>
      <polygon class="cls-9" points="117.3 149.41 117.28 149.88 15.93 146.22 15.93 145.75 117.3 149.41"/>
      <polygon class="cls-9" points="117.28 149.88 117.27 150.35 15.93 146.69 15.93 146.22 117.28 149.88"/>
      <polygon class="cls-8" points="117.27 150.35 117.25 150.82 15.93 147.16 15.93 146.69 117.27 150.35"/>
      <polygon class="cls-8" points="117.25 150.82 117.23 151.29 15.93 147.63 15.93 147.16 117.25 150.82"/>
      <polygon class="cls-8" points="117.23 151.29 117.22 151.76 15.93 148.1 15.93 147.63 117.23 151.29"/>
      <polygon class="cls-8" points="117.22 151.76 117.2 152.23 15.93 148.57 15.93 148.1 117.22 151.76"/>
      <polygon class="cls-126" points="117.2 152.23 117.18 152.69 15.93 149.04 15.93 148.57 117.2 152.23"/>
      <polygon class="cls-126" points="117.18 152.69 117.16 153.16 15.93 149.51 15.93 149.04 117.18 152.69"/>
      <polygon class="cls-126" points="117.16 153.16 117.15 153.63 15.93 149.98 15.93 149.51 117.16 153.16"/>
      <polygon class="cls-126" points="117.15 153.63 117.13 154.1 15.93 150.45 15.93 149.98 117.15 153.63"/>
      <polygon class="cls-133" points="117.13 154.1 117.11 154.57 15.93 150.92 15.93 150.45 117.13 154.1"/>
      <polygon class="cls-133" points="117.11 154.57 117.1 155.04 15.93 151.39 15.93 150.92 117.11 154.57"/>
      <polygon class="cls-133" points="117.1 155.04 117.08 155.51 15.93 151.86 15.93 151.39 117.1 155.04"/>
      <polygon class="cls-133" points="117.08 155.51 117.06 155.98 15.93 152.33 15.93 151.86 117.08 155.51"/>
      <polygon class="cls-133" points="117.06 155.98 117.05 156.45 15.93 152.8 15.93 152.33 117.06 155.98"/>
      <polygon class="cls-130" points="117.05 156.45 117.03 156.92 15.93 153.27 15.93 152.8 117.05 156.45"/>
      <polygon class="cls-130" points="117.03 156.92 117.01 157.39 15.93 153.74 15.93 153.27 117.03 156.92"/>
      <polygon class="cls-130" points="117.01 157.39 117 157.86 15.93 154.21 15.93 153.74 117.01 157.39"/>
      <polygon class="cls-129" points="117 157.86 116.98 158.33 15.93 154.68 15.93 154.21 117 157.86"/>
      <polygon class="cls-129" points="116.98 158.33 116.96 158.79 15.93 155.15 15.93 154.68 116.98 158.33"/>
      <polygon class="cls-129" points="116.96 158.79 116.94 159.26 15.93 155.62 15.93 155.15 116.96 158.79"/>
      <polygon class="cls-129" points="116.94 159.26 116.93 159.73 15.93 156.09 15.93 155.62 116.94 159.26"/>
      <polygon class="cls-112" points="116.93 159.73 116.91 160.2 15.93 156.56 15.93 156.09 116.93 159.73"/>
      <polygon class="cls-112" points="116.91 160.2 116.89 160.67 15.93 157.03 15.93 156.56 116.91 160.2"/>
      <polygon class="cls-112" points="116.89 160.67 116.88 161.14 15.93 157.5 15.93 157.03 116.89 160.67"/>
      <polygon class="cls-112" points="116.88 161.14 116.86 161.61 15.93 157.97 15.93 157.5 116.88 161.14"/>
      <polygon class="cls-112" points="116.86 161.61 116.84 162.08 15.93 158.44 15.93 157.97 116.86 161.61"/>
      <polygon class="cls-112" points="116.84 162.08 116.83 162.55 15.93 158.91 15.93 158.44 116.84 162.08"/>
      <polygon class="cls-112" points="116.83 162.55 116.81 163.02 15.93 159.38 15.93 158.91 116.83 162.55"/>
      <polygon class="cls-112" points="116.81 163.02 116.79 163.49 15.93 159.85 15.93 159.38 116.81 163.02"/>
      <polygon class="cls-112" points="116.79 163.49 116.78 163.96 15.93 160.32 15.93 159.85 116.79 163.49"/>
      <polygon class="cls-112" points="116.78 163.96 116.76 164.43 15.93 160.79 15.93 160.32 116.78 163.96"/>
      <polygon class="cls-112" points="116.76 164.43 116.74 164.89 15.93 161.26 15.93 160.79 116.76 164.43"/>
      <polygon class="cls-118" points="116.74 164.89 116.72 165.36 15.93 161.73 15.93 161.26 116.74 164.89"/>
      <polygon class="cls-118" points="116.72 165.36 116.71 165.83 15.93 162.2 15.93 161.73 116.72 165.36"/>
      <polygon class="cls-118" points="116.71 165.83 116.69 166.3 15.93 162.67 15.93 162.2 116.71 165.83"/>
      <polygon class="cls-118" points="116.69 166.3 116.67 166.77 15.93 163.14 15.93 162.67 116.69 166.3"/>
      <polygon class="cls-118" points="116.67 166.77 116.66 167.24 15.93 163.6 15.93 163.14 116.67 166.77"/>
      <polygon class="cls-118" points="116.66 167.24 116.64 167.71 15.93 164.07 15.93 163.6 116.66 167.24"/>
      <polygon class="cls-118" points="116.64 167.71 116.62 168.18 15.93 164.54 15.93 164.07 116.64 167.71"/>
      <polygon class="cls-118" points="116.62 168.18 116.61 168.65 15.93 165.01 15.93 164.54 116.62 168.18"/>
      <polygon class="cls-118" points="116.61 168.65 116.59 169.12 15.93 165.48 15.93 165.01 116.61 168.65"/>
      <polygon class="cls-118" points="116.59 169.12 116.57 169.59 15.93 165.95 15.93 165.48 116.59 169.12"/>
      <polygon class="cls-118" points="116.57 169.59 116.56 169.86 111.16 169.86 15.93 166.42 15.93 165.95 116.57 169.59"/>
      <polygon class="cls-118" points="98.14 169.86 15.93 166.89 15.93 166.42 111.16 169.86 98.14 169.86"/>
      <polygon class="cls-118" points="85.12 169.86 15.93 167.36 15.93 166.89 98.14 169.86 85.12 169.86"/>
      <polygon class="cls-118" points="72.11 169.86 15.93 167.83 15.93 167.36 85.12 169.86 72.11 169.86"/>
      <polygon class="cls-118" points="59.09 169.86 15.93 168.3 15.93 167.83 72.11 169.86 59.09 169.86"/>
      <polygon class="cls-118" points="46.08 169.86 15.93 168.77 15.93 168.3 59.09 169.86 46.08 169.86"/>
      <polygon class="cls-118" points="33.06 169.86 15.93 169.24 15.93 168.77 46.08 169.86 33.06 169.86"/>
      <polygon class="cls-118" points="20.04 169.86 15.93 169.71 15.93 169.24 33.06 169.86 20.04 169.86"/>
      <polygon class="cls-118" points="15.93 169.71 20.04 169.86 15.93 169.86 15.93 169.71"/>
    </g>
    <path class="cls-118" d="m61.88,175.46c7.88.84,15.76.79,23.26-1.89,24.77-8.86,41.34-25.26,45.28-52.02,2.48-16.87-3.82-31.33-15.18-43.66-5.86-6.36-12.96-10.75-21.63-12.29-.3-.05-.57-.28-1.63-.83,3.92-1.41,7.13-2.82,10.49-3.72,8.42-2.28,16.88-2.02,25.28.29,8.09,2.23,13.29,8.13,17.84,14.6,19.23,27.33,15.15,64.28-9.6,87.26-18.89,17.53-40.88,22.96-65.77,16.24-2.93-.79-5.72-2.12-8.58-3.2.08-.26.17-.51.25-.77Z"/>
  </g>
  <g>
    <path class="cls-3" d="m231.44,127.01c-.42,7.02-3.91,10.53-10.47,10.53h-10.53c-2.86,0-5.33-1.03-7.41-3.09-2.08-2.06-3.12-4.54-3.12-7.44v-26.24c0-2.86,1.02-5.33,3.06-7.41,2.04-2.08,4.53-3.12,7.47-3.12h10.53c6.6,0,10.09,3.51,10.47,10.53h-5.23c-.42-3.53-2.17-5.3-5.23-5.3h-5.3c-1.43,0-2.66.52-3.69,1.55-1.03,1.03-1.55,2.28-1.55,3.75v26.24c0,1.43.51,2.67,1.55,3.72,1.03,1.05,2.26,1.58,3.69,1.58h5.3c3.11,0,4.86-1.77,5.23-5.3h5.23Z"/>
    <path class="cls-3" d="m252.51,90.24h10.53c2.86,0,5.32,1.04,7.38,3.12,2.06,2.08,3.09,4.55,3.09,7.41v26.24c0,2.86-1.03,5.33-3.09,7.41-2.06,2.08-4.52,3.12-7.38,3.12h-10.53c-2.86,0-5.33-1.03-7.41-3.09-2.08-2.06-3.12-4.54-3.12-7.44v-26.24c0-2.9,1.04-5.38,3.12-7.44,2.08-2.06,4.55-3.09,7.41-3.09Zm0,10.53v26.24c0,1.43.51,2.67,1.55,3.72,1.03,1.05,2.26,1.58,3.69,1.58s2.72-.53,3.75-1.58c1.03-1.05,1.55-2.29,1.55-3.72v-26.24c0-1.47-.52-2.72-1.55-3.75-1.03-1.03-2.28-1.55-3.75-1.55s-2.66.52-3.69,1.55c-1.03,1.03-1.55,2.28-1.55,3.75Z"/>
    <path class="cls-3" d="m289.34,137.54v-47.3h10.47v47.3h-10.47Z"/>
    <path class="cls-3" d="m315.58,137.54v-47.3h2.46l29.08,26.3v-26.3h5.3v47.3h-2.4l-29.14-26.3v26.3h-5.3Z"/>
    <path class="cls-3" d="m394.42,127.01c-.42,7.02-3.91,10.53-10.47,10.53h-10.53c-2.86,0-5.33-1.03-7.41-3.09-2.08-2.06-3.12-4.54-3.12-7.44v-26.24c0-2.86,1.02-5.33,3.06-7.41,2.04-2.08,4.53-3.12,7.47-3.12h10.53c6.6,0,10.09,3.51,10.47,10.53h-5.23c-.42-3.53-2.17-5.3-5.23-5.3h-5.3c-1.43,0-2.66.52-3.69,1.55-1.03,1.03-1.55,2.28-1.55,3.75v26.24c0,1.43.51,2.67,1.55,3.72,1.03,1.05,2.26,1.58,3.69,1.58h5.3c3.11,0,4.86-1.77,5.23-5.3h5.23Z"/>
    <path class="cls-3" d="m410.25,137.54v-47.3h10.47v47.3h-10.47Z"/>
    <path class="cls-3" d="m436.49,137.54v-47.3h21.07c2.86,0,5.32,1.04,7.38,3.12,2.06,2.08,3.09,4.55,3.09,7.41v26.24c0,2.86-1.03,5.33-3.09,7.41-2.06,2.08-4.52,3.12-7.38,3.12h-21.07Zm10.53-5.23h5.23c1.47,0,2.72-.53,3.75-1.58,1.03-1.05,1.55-2.29,1.55-3.72v-26.24c0-1.47-.52-2.72-1.55-3.75-1.03-1.03-2.28-1.55-3.75-1.55h-5.23v36.83Z"/>
    <path class="cls-3" d="m478.56,137.54v-47.3h26.3v5.23h-15.77v15.77h10.53v5.3h-10.53v15.77h15.77v5.23h-26.3Z"/>
    <path class="cls-3" d="m515.33,137.54v-47.3h2.46l29.08,26.3v-26.3h5.3v47.3h-2.4l-29.14-26.3v26.3h-5.3Z"/>
    <path class="cls-3" d="m594.17,127.01c-.42,7.02-3.91,10.53-10.47,10.53h-10.53c-2.86,0-5.33-1.03-7.41-3.09-2.08-2.06-3.12-4.54-3.12-7.44v-26.24c0-2.86,1.02-5.33,3.06-7.41,2.04-2.08,4.53-3.12,7.47-3.12h10.53c6.6,0,10.09,3.51,10.47,10.53h-5.23c-.42-3.53-2.17-5.3-5.23-5.3h-5.3c-1.43,0-2.66.52-3.69,1.55-1.03,1.03-1.55,2.28-1.55,3.75v26.24c0,1.43.51,2.67,1.55,3.72,1.03,1.05,2.26,1.58,3.69,1.58h5.3c3.11,0,4.86-1.77,5.23-5.3h5.23Z"/>
    <path class="cls-3" d="m604.7,137.54v-47.3h26.3v5.23h-15.77v15.77h10.53v5.3h-10.53v15.77h15.77v5.23h-26.3Z"/>
  </g>
</svg>