<?xml version="1.0" encoding="UTF-8"?>
<svg id="App" xmlns="http://www.w3.org/2000/svg" viewBox="0 0 131 122">
  <defs>
    <style>
      .cls-1 {
        fill: #ffaf7b;
        stroke: #4f4f4f;
        stroke-miterlimit: 10;
      }
    </style>
  </defs>
  <g id="Nav-bar">
    <g id="Connect">
      <path class="cls-1" d="m49.53,116.9c-7.17,0-14.23-1.97-20.51-5.8-9.01-5.5-15.35-14.18-17.84-24.44-2.49-10.26-.83-20.88,4.67-29.9,5.5-9.01,14.18-15.35,24.44-17.83,10.26-2.49,20.88-.83,29.89,4.67h0c9.01,5.5,15.35,14.18,17.84,24.44,2.49,10.26.83,20.88-4.67,29.9-5.5,9.01-14.18,15.35-24.44,17.83-3.11.75-6.26,1.13-9.38,1.13Zm.12-67.68c-2.22,0-4.46.27-6.67.8-7.3,1.77-13.47,6.27-17.38,12.69-3.91,6.41-5.09,13.96-3.32,21.26,1.77,7.3,6.27,13.47,12.69,17.38s13.96,5.09,21.26,3.32c7.3-1.77,13.47-6.27,17.38-12.69s5.09-13.96,3.32-21.26c-1.77-7.3-6.27-13.47-12.69-17.38h0c-4.47-2.73-9.49-4.13-14.59-4.13Z"/>
      <path class="cls-1" d="m77.8,89.06c-1.86,0-3.72-.13-5.59-.39-10.46-1.47-19.71-6.93-26.07-15.36-6.35-8.43-9.04-18.84-7.57-29.29,1.47-10.46,6.93-19.71,15.36-26.07,17.41-13.11,42.25-9.62,55.36,7.79,13.11,17.41,9.62,42.24-7.79,55.36-6.93,5.22-15.18,7.96-23.7,7.96Zm-.12-67.65c-5.89,0-11.83,1.84-16.88,5.65-6,4.52-9.88,11.1-10.93,18.54-1.05,7.44.86,14.84,5.38,20.84,4.52,6,11.1,9.88,18.54,10.93,7.44,1.05,14.84-.87,20.84-5.38,12.38-9.33,14.87-26.99,5.54-39.38-5.52-7.33-13.96-11.19-22.49-11.19Z"/>
    </g>
  </g>
</svg>