<?xml version="1.0" encoding="UTF-8"?>
<svg id="App" xmlns="http://www.w3.org/2000/svg" viewBox="0 0 131 122">
  <defs>
    <style>
      .cls-1 {
        fill: #32b9ad;
        stroke: #4f4f4f;
        stroke-miterlimit: 10;
      }
    </style>
  </defs>
  <g id="Nav-bar">
    <g id="Learn">
      <path class="cls-1" d="m77.28,36.17c-16.99-6.06-35.67,2.81-41.72,19.8-5.8,16.27,2.1,34.06,17.7,40.86v20.18h28.3v-21.23c6.98-3.68,12.66-9.86,15.52-17.88,6.06-16.99-2.81-35.67-19.8-41.72Z"/>
      <rect class="cls-1" x="14.3" y="53.63" width="5.28" height="15.84" transform="translate(-46.88 63.05) rotate(-75.96)"/>
      <rect class="cls-1" x="26.26" y="23.69" width="5.28" height="15.84" transform="translate(-13.89 29.69) rotate(-45)"/>
      <rect class="cls-1" x="50.94" y="11.72" width="5.28" height="15.84" transform="translate(-3.37 16) rotate(-16.47)"/>
      <rect class="cls-1" x="76.07" y="11.08" width="5.28" height="15.84" transform="translate(5.01 -14.54) rotate(10.9)"/>
      <rect class="cls-1" x="99.09" y="23.32" width="5.28" height="15.84" transform="translate(51.89 -62.78) rotate(45)"/>
      <rect class="cls-1" x="110.75" y="53.43" width="5.28" height="15.84" transform="translate(81.38 186.24) rotate(-104.04)"/>
    </g>
  </g>
</svg>