<?xml version="1.0" encoding="UTF-8"?>
<svg id="Setting_profile" data-name="Setting profile" xmlns="http://www.w3.org/2000/svg" xmlns:xlink="http://www.w3.org/1999/xlink" viewBox="0 0 306.65 226.18">
  <defs>
    <style>
      .cls-1 {
        fill: url(#Degradado_sin_nombre_6);
      }

      .cls-1, .cls-2, .cls-3, .cls-4, .cls-5 {
        stroke-width: 0px;
      }

      .cls-2 {
        fill: #4f4f4f;
      }

      .cls-3 {
        fill: #32b9ad;
      }

      .cls-4 {
        fill: #ffaf7b;
      }

      .cls-5 {
        fill: #fbe8da;
      }
    </style>
    <linearGradient id="Degradado_sin_nombre_6" data-name="Degradado sin nombre 6" x1="-95.02" y1="-121.75" x2="-95.02" y2="1557.99" gradientUnits="userSpaceOnUse">
      <stop offset="0" stop-color="#32b9ad"/>
      <stop offset=".02" stop-color="#51c0b3"/>
      <stop offset=".06" stop-color="#78c9bc"/>
      <stop offset=".1" stop-color="#9cd1c4"/>
      <stop offset=".14" stop-color="#b9d8cb"/>
      <stop offset=".19" stop-color="#d1ded0"/>
      <stop offset=".25" stop-color="#e4e2d4"/>
      <stop offset=".31" stop-color="#f1e5d7"/>
      <stop offset=".39" stop-color="#f8e7d9"/>
      <stop offset=".57" stop-color="#fbe8da"/>
      <stop offset=".7" stop-color="#fbe6d7"/>
      <stop offset=".76" stop-color="#fbe2d0"/>
      <stop offset=".8" stop-color="#fbdac3"/>
      <stop offset=".84" stop-color="#fcd0b2"/>
      <stop offset=".87" stop-color="#fdc29a"/>
      <stop offset=".9" stop-color="#feb17e"/>
      <stop offset=".91" stop-color="#ffaf7b"/>
    </linearGradient>
  </defs>
  <rect class="cls-1" x="-545.02" y="-60.82" width="900" height="1399"/>
  <rect class="cls-5" width="306.65" height="226.18"/>
  <g>
    <g>
      <path class="cls-4" d="m65.43,191.09c.48-3.5.83-7.02,1.47-10.49,3.98-21.68,14.41-39.72,30.99-54.19,10.86-9.48,23.3-16.1,37.21-19.91.47-.13.91-.32,1.66-.58-15.92-10.68-24.03-25.33-22.92-44.42.78-13.38,6.65-24.5,16.9-33.17,19.52-16.52,49.22-14.29,65.92,4.97,9.69,11.18,13.58,24.22,11.36,38.85-2.21,14.56-10,25.62-22.57,33.74,2.1.65,3.92,1.17,5.71,1.78,29.99,10.35,50.56,30.3,61.04,60.32,3.95,11.29,5.23,23.01,4.47,34.97-.18,2.85-1.31,4.69-3.92,5.7H69.54c-1.94-.87-3.57-2-3.79-4.37-.06-.67-.22-1.32-.33-1.98,0-3.74,0-7.48,0-11.22Zm9.46,7.78h172.51c-.38-30.87-12.71-55.6-38.63-72.05-31.48-19.97-64.19-19.87-95.58.21-25.72,16.46-37.96,41.11-38.3,71.83Zm48.38-134.07c-.04,20.78,16.76,38.01,37.14,38.07,21.61.06,38.53-16.57,38.6-37.92.07-21-16.72-37.97-37.7-38.1-20.98-.13-38,16.84-38.04,37.94Z"/>
      <path class="cls-2" d="m253.04,210.18l-184.11-.13c-2.02-.9-4.39-2.36-4.68-5.62-.04-.41-.12-.81-.19-1.22l-.12-.64-.02-11.57v-.1c.17-1.1.31-2.21.44-3.31.3-2.38.61-4.84,1.05-7.25,4-21.79,14.59-40.32,31.49-55.06,10.61-9.26,22.88-15.94,36.49-19.86-15.04-11.07-22.12-25.86-21.06-43.99.79-13.6,6.66-25.12,17.43-34.24,20.22-17.12,50.75-14.81,68.05,5.14,10.05,11.59,13.99,25.07,11.71,40.07-2.06,13.55-8.98,24.63-20.6,32.99.94.29,1.84.57,2.73.88,30.62,10.56,51.47,31.17,61.98,61.25,3.83,10.95,5.36,22.92,4.55,35.57-.23,3.54-1.82,5.83-4.89,7.01l-.26.1Zm-183.16-3.04h182.58c1.77-.76,2.56-2.02,2.7-4.28.78-12.24-.7-23.8-4.39-34.37-10.19-29.16-30.41-49.14-60.11-59.38-1.18-.41-2.39-.77-3.67-1.16l-5.09-1.57,2.72-1.76c12.63-8.16,19.79-18.86,21.89-32.7,2.14-14.07-1.56-26.73-11.01-37.62-16.21-18.7-44.83-20.86-63.79-4.81-10.12,8.56-15.62,19.36-16.36,32.1-1.05,17.97,6.44,32.46,22.25,43.07l2.52,1.69-3.53,1.25c-.42.15-.75.27-1.09.37-13.69,3.75-26.01,10.34-36.62,19.59-16.37,14.28-26.63,32.22-30.5,53.32-.43,2.33-.73,4.74-1.02,7.08-.14,1.08-.27,2.16-.42,3.24l.09,11.44c.09.5.19,1.01.24,1.51.12,1.33.83,2.16,2.6,2.99Zm179.07-6.76H73.36l.02-1.54c.35-32.17,13.47-56.76,39-73.09,31.78-20.33,65.39-20.41,97.21-.22,25.7,16.3,38.94,40.97,39.34,73.31l.02,1.54Zm-172.51-3.04h169.42c-.78-30.49-13.53-53.79-37.9-69.25-30.75-19.51-63.24-19.44-93.95.21-24.2,15.49-36.84,38.71-37.57,69.04Zm84.1-92.96h-.12c-21.36-.06-38.7-17.82-38.65-39.59.02-10.65,4.17-20.62,11.69-28.08,7.46-7.4,17.51-11.44,27.88-11.38,21.69.13,39.28,17.9,39.21,39.62-.07,22.13-17.63,39.43-40,39.43Zm.55-76.01c-9.62,0-18.67,3.72-25.5,10.5-6.94,6.88-10.77,16.09-10.8,25.93h0c-.04,20.1,15.94,36.49,35.63,36.55h.12c20.67,0,36.9-15.97,36.97-36.4.06-20.05-16.17-36.45-36.19-36.57h-.22Z"/>
    </g>
    <g>
      <path class="cls-4" d="m65.43,202.31c.11.66.27,1.32.33,1.98.21,2.38,1.84,3.51,3.79,4.37h-4.11c0-2.12,0-4.24,0-6.36Z"/>
      <path class="cls-2" d="m76.68,210.18h-12.77v-7.87l3.01-.25.11.58c.09.5.19,1.01.24,1.51.12,1.4.91,2.24,2.89,3.12l6.52,2.91Z"/>
    </g>
    <g>
      <path class="cls-3" d="m74.89,198.87c.34-30.72,12.58-55.37,38.3-71.83,31.39-20.09,64.1-20.19,95.58-.21,25.92,16.44,38.25,41.18,38.63,72.05H74.89Z"/>
      <path class="cls-2" d="m248.95,200.39H73.36l.02-1.54c.35-32.17,13.47-56.76,39-73.09,31.77-20.33,65.39-20.41,97.21-.22,25.7,16.3,38.94,40.97,39.34,73.31l.02,1.54Zm-172.51-3.04h169.42c-.78-30.49-13.53-53.79-37.9-69.25-30.75-19.51-63.24-19.44-93.95.21-24.2,15.49-36.84,38.71-37.57,69.04Z"/>
    </g>
    <g>
      <path class="cls-3" d="m123.28,64.8c.04-21.1,17.06-38.07,38.04-37.94,20.98.13,37.77,17.09,37.7,38.1-.07,21.35-17,37.98-38.6,37.92-20.38-.06-37.18-17.29-37.14-38.07Z"/>
      <path class="cls-2" d="m160.54,104.39h-.12c-21.36-.06-38.7-17.82-38.65-39.59.02-10.65,4.17-20.62,11.69-28.08,7.46-7.4,17.51-11.44,27.88-11.38,21.69.13,39.28,17.9,39.21,39.62-.07,22.13-17.63,39.43-40,39.43Zm.55-76.01c-9.62,0-18.67,3.72-25.5,10.5-6.94,6.88-10.77,16.09-10.8,25.93h0c-.04,20.1,15.94,36.49,35.63,36.55h.12c20.67,0,36.9-15.97,36.97-36.4.06-20.05-16.17-36.45-36.19-36.57h-.22Z"/>
    </g>
  </g>
</svg>