<?xml version="1.0" encoding="UTF-8"?>
<svg id="App" xmlns="http://www.w3.org/2000/svg" viewBox="0 0 131 122">
  <defs>
    <style>
      .cls-1 {
        fill: #ffaf7b;
      }

      .cls-1, .cls-2 {
        stroke: #4f4f4f;
        stroke-miterlimit: 10;
      }

      .cls-2 {
        fill: #32b9ad;
      }
    </style>
  </defs>
  <g id="Nav-bar">
    <g>
      <path class="cls-1" d="m18.27,101.02c.25-1.79.43-3.59.75-5.36,2.03-11.08,7.37-20.3,15.84-27.69,5.55-4.84,11.9-8.23,19.02-10.17.24-.07.47-.16.85-.3-8.14-5.46-12.28-12.95-11.71-22.7.4-6.84,3.4-12.52,8.64-16.95,9.97-8.44,25.15-7.3,33.68,2.54,4.95,5.71,6.94,12.38,5.8,19.85-1.13,7.44-5.11,13.09-11.53,17.24,1.07.33,2,.6,2.92.91,15.33,5.29,25.83,15.48,31.19,30.82,2.02,5.77,2.67,11.76,2.28,17.87-.09,1.45-.67,2.4-2,2.91H20.37c-.99-.44-1.83-1.02-1.93-2.23-.03-.34-.11-.68-.17-1.01,0-1.91,0-3.82,0-5.73Zm4.84,3.97h88.15c-.2-15.77-6.5-28.41-19.74-36.81-16.09-10.21-32.8-10.15-48.84.11-13.14,8.41-19.4,21.01-19.57,36.71Zm24.72-68.51c-.02,10.62,8.57,19.42,18.98,19.45,11.04.03,19.69-8.47,19.73-19.37.03-10.73-8.54-19.4-19.27-19.47-10.72-.06-19.42,8.61-19.44,19.39Z"/>
      <path class="cls-1" d="m18.27,106.75c.06.34.14.67.17,1.01.11,1.21.94,1.79,1.93,2.23h-2.1c0-1.08,0-2.16,0-3.25Z"/>
      <path class="cls-2" d="m23.11,105c.17-15.7,6.43-28.3,19.57-36.71,16.04-10.26,32.75-10.32,48.84-.11,13.24,8.4,19.55,21.04,19.74,36.81H23.11Z"/>
      <path class="cls-2" d="m47.83,36.49c.02-10.78,8.72-19.45,19.44-19.39,10.72.06,19.3,8.73,19.27,19.47-.03,10.91-8.69,19.41-19.73,19.37-10.41-.03-19-8.83-18.98-19.45Z"/>
    </g>
  </g>
</svg>