<?xml version="1.0" encoding="UTF-8"?>
<svg id="App" xmlns="http://www.w3.org/2000/svg" viewBox="0 0 131 122">
  <defs>
    <style>
      .cls-1 {
        fill: #ffaf7b;
        stroke: #4f4f4f;
        stroke-miterlimit: 10;
      }
    </style>
  </defs>
  <g id="Nav-bar">
    <g>
      <path class="cls-1" d="m15.98,39.63c.16-.68.29-1.38.49-2.05,1.72-5.84,5.53-9.51,11.43-10.99.22-.05.43-.12.74-.21,0-.63,0-1.27,0-1.91,0-3.72-.01-7.45,0-11.17.01-2.04,1.7-3.31,3.42-2.59,1.16.48,1.58,1.43,1.58,2.65-.01,3.98,0,7.97,0,11.95,0,.35,0,.71,0,1.11,4.27.84,7.68,2.97,10.1,6.55,1.85,2.74,2.67,5.78,2.56,9.09-.2,6.03-4.55,12.78-12.66,14.36,0,.36,0,.74,0,1.13,0,16.35-.01,32.71.02,49.06,0,1.6-.44,2.76-1.95,3.41h-1.17c-1.49-.66-1.94-1.83-1.93-3.43.04-16.32.02-32.64.02-48.96,0-.41,0-.82,0-1.2-.2-.07-.29-.11-.39-.13-.16-.04-.31-.08-.47-.12-5.85-1.52-9.63-5.18-11.33-10.98-.2-.67-.33-1.37-.49-2.06,0-1.17,0-2.33,0-3.5Zm15.16,11.89c5.7,0,10.19-4.46,10.21-10.11.01-6.11-5.26-10.39-10.56-10.19-5.3.2-9.8,4.67-9.8,10.16,0,5.67,4.48,10.14,10.16,10.14Z"/>
      <path class="cls-1" d="m99.78,110c-1.51-.65-1.96-1.81-1.95-3.41.04-12.63.02-25.26.02-37.89v-1.2c-2.39-.49-4.59-1.32-6.48-2.79-4.98-3.88-7.09-8.99-5.86-15.15,1.25-6.25,5.26-10.16,11.42-11.78.77-.2.94-.48.94-1.21-.03-7.58-.02-15.16-.02-22.74,0-.32-.02-.65.01-.97.12-1.32,1.14-2.31,2.42-2.35,1.25-.04,2.35.91,2.54,2.22.05.35.03.71.03,1.07,0,7.58.01,15.16-.02,22.74,0,.79.2,1.07,1,1.26,6.93,1.65,11.72,7.76,11.69,14.82-.03,7.01-4.85,13.02-11.76,14.67-.28.07-.55.15-.91.25,0,.39,0,.77,0,1.16,0,12.63-.02,25.26.02,37.89,0,1.59-.44,2.76-1.93,3.43h-1.17Zm10.75-57.46c.02-5.61-4.5-10.18-10.05-10.19-5.74-.02-10.29,4.46-10.32,10.14-.02,5.77,4.54,10.18,10.55,10.19,5.29.01,9.81-4.65,9.82-10.14Z"/>
      <path class="cls-1" d="m65.17,110c-1.5-.66-1.97-1.82-1.94-3.42.07-4.47,0-8.94.04-13.41,0-.7-.16-.97-.9-1.14-6.95-1.61-11.77-7.69-11.78-14.75,0-7.07,4.79-13.1,11.75-14.77.28-.07.55-.15.91-.24v-1.25c0-15.74,0-31.48,0-47.22,0-2.13.94-3.34,2.55-3.3,1.58.04,2.46,1.21,2.46,3.3,0,15.74,0,31.48,0,47.22,0,.42,0,.83,0,1.28,3.34.64,6.18,2.08,8.47,4.52,8.08,8.62,3.92,22.49-7.58,25.2-.74.17-.91.44-.9,1.14.03,4.47-.03,8.94.04,13.41.02,1.6-.44,2.76-1.94,3.42h-1.17Zm10.77-32.69c.02-5.52-4.48-10.18-9.85-10.2-5.92-.02-10.49,4.37-10.51,10.13-.02,5.59,4.5,10.18,10.05,10.21,5.73.03,10.3-4.46,10.32-10.14Z"/>
    </g>
  </g>
</svg>